<?xml version="1.0" encoding="UTF-8"?>
<svg id="Layer_2" data-name="Layer 2" xmlns="http://www.w3.org/2000/svg" viewBox="0 0 767.4 127.98">
  <defs>
    <style>
      .cls-1 {
        fill: #fff;
        stroke-width: 0px;
      }
    </style>
  </defs>
  <g id="Layer_1-2" data-name="Layer 1">
    <g>
      <g>
        <path class="cls-1" d="M191.61,106.29V21.33h27.9c7.17,0,13.28,1.2,18.32,3.61,5.04,2.41,9.13,5.64,12.26,9.71,3.13,4.07,5.42,8.62,6.86,13.66,1.44,5.04,2.16,10.21,2.16,15.51,0,4.86-.68,9.77-2.04,14.75-1.36,4.98-3.58,9.56-6.65,13.75-3.07,4.19-7.18,7.57-12.32,10.14-5.14,2.57-11.5,3.85-19.06,3.85h-27.43ZM206.92,91.37h13.71c4.22,0,7.76-.82,10.64-2.46,2.88-1.64,5.19-3.8,6.94-6.49,1.75-2.69,3.03-5.66,3.84-8.92.81-3.26,1.21-6.48,1.21-9.68,0-3.4-.41-6.74-1.24-10.01-.83-3.28-2.11-6.25-3.84-8.92-1.73-2.67-3.94-4.79-6.62-6.37-2.68-1.58-5.89-2.37-9.63-2.37h-15.01v55.23Z"/>
        <path class="cls-1" d="M274.65,106.29V21.33h55.92v14.93h-40.61v18.69h24.06v14.93h-24.06v21.36h43.09v15.05h-58.4Z"/>
        <path class="cls-1" d="M375.28,106.29l-29.38-84.96h16.55l18.5,56.26c.28.85.56,1.73.86,2.64.3.91.54,1.75.74,2.52.12-.69.3-1.49.56-2.4.26-.91.54-1.83.86-2.76l18.38-56.26h16.37l-29.26,84.96h-14.19Z"/>
        <path class="cls-1" d="M434.63,106.29V21.33h14.3l32.63,50.01c.43.73.99,1.71,1.68,2.94.69,1.23,1.27,2.36,1.74,3.37-.12-.89-.21-1.97-.27-3.25-.06-1.27-.09-2.3-.09-3.06V21.33h15.25v84.96h-13.65l-33.28-50.37c-.43-.69-1-1.66-1.68-2.91-.69-1.25-1.27-2.39-1.74-3.4.12,1.01.2,2.1.24,3.28.04,1.17.06,2.19.06,3.03v50.37h-15.19Z"/>
        <path class="cls-1" d="M516.61,106.29V21.33h55.92v14.93h-40.61v18.69h24.06v14.93h-24.06v21.36h43.09v15.05h-58.4Z"/>
        <path class="cls-1" d="M590.97,106.29l26.6-43.82-24.94-41.15h17.79l16.02,26.64,15.9-26.64h17.79l-24.88,40.9,26.66,44.06h-17.85l-17.73-29.49-17.55,29.49h-17.79Z"/>
        <path class="cls-1" d="M677.87,106.29V21.33h15.31v84.96h-15.31Z"/>
        <path class="cls-1" d="M738.65,106.65c-5.01,0-9.57-.9-13.66-2.71-4.09-1.81-7.6-4.37-10.53-7.69-2.93-3.32-5.12-7.24-6.57-11.76l13.49-5.13c1.72,3.77,4.12,6.86,7.2,9.28,3.08,2.42,6.55,3.62,10.42,3.62,4.09,0,7.36-.88,9.79-2.65,2.43-1.77,3.64-4.34,3.64-7.72,0-2.32-.72-4.25-2.15-5.8-1.43-1.55-3.37-2.89-5.8-4.01-2.43-1.12-5.18-2.21-8.24-3.27-2.95-1.02-5.91-2.16-8.9-3.42-2.98-1.26-5.72-2.8-8.21-4.63-2.49-1.83-4.49-4.13-6-6.92-1.51-2.79-2.27-6.21-2.27-10.25s1.05-7.76,3.16-11.14c2.1-3.38,5.16-6.08,9.15-8.1,4-2.02,8.85-3.03,14.55-3.03,4.67,0,8.81.82,12.43,2.45,3.62,1.63,6.61,3.84,8.98,6.63,2.37,2.79,4.02,5.95,4.94,9.49l-13.31,4.54c-1.07-2.47-2.71-4.55-4.91-6.22-2.2-1.67-5.18-2.5-8.92-2.5-3.52,0-6.26.71-8.21,2.12-1.95,1.41-2.93,3.42-2.93,6.01,0,1.77.66,3.27,1.98,4.51,1.32,1.24,3.1,2.35,5.34,3.33,2.24.98,4.77,1.98,7.6,3,3.18,1.1,6.34,2.35,9.5,3.74,3.16,1.39,6.03,3.09,8.61,5.1,2.58,2,4.66,4.49,6.23,7.45,1.57,2.97,2.35,6.59,2.35,10.87,0,5.26-1.27,9.74-3.82,13.43-2.55,3.69-5.98,6.51-10.3,8.46-4.32,1.94-9.2,2.92-14.64,2.92Z"/>
      </g>
      <path class="cls-1" d="M5.56,0l34.61,34.61h46.68c3.59,0,6.5,2.91,6.5,6.5v46.68l34.61,34.61V6.5c0-3.59-2.91-6.5-6.5-6.5H5.56ZM87.79,93.37h-46.68c-3.59,0-6.5-2.91-6.5-6.5v-46.68L0,5.57v115.91c0,3.59,2.91,6.5,6.5,6.5h115.91l-34.61-34.61Z"/>
    </g>
  </g>
</svg>