<?xml version="1.0" encoding="UTF-8"?>
<svg id="Layer_2" data-name="Layer 2" xmlns="http://www.w3.org/2000/svg" viewBox="0 0 226.89 186.27">
  <defs>
    <style>
      .cls-1 {
        stroke: #fff;
        stroke-width: 18.38px;
      }

      .cls-1, .cls-2, .cls-3 {
        stroke-linecap: round;
        stroke-linejoin: round;
      }

      .cls-1, .cls-3 {
        fill: none;
      }

      .cls-2 {
        fill: #fff;
      }

      .cls-2, .cls-3 {
        stroke: #0112e8;
        stroke-width: 6.13px;
      }

      .cls-4 {
        fill: #0112e8;
        stroke-width: 0px;
      }
    </style>
  </defs>
  <g id="icons">
    <g>
      <g>
        <polyline class="cls-3" points="80.27 93.87 80.27 52.79 109.19 52.79 109.19 93.87"/>
        <polyline class="cls-3" points="109.19 93.87 109.19 27.93 138.1 27.93 138.1 93.87"/>
        <polyline class="cls-3" points="138.1 93.87 138.1 3.06 167.01 3.06 167.01 93.87"/>
      </g>
      <g>
        <g>
          <path class="cls-1" d="m148.89,106.87s21.53-16.95,34.93-27.27c14.1-10.85,25.05-6.25,33.88,2.79l-67.22,64.86H63.35"/>
          <path class="cls-1" d="m30.86,117.67c16.51-21.23,29.61-29.33,45.92-29.33,13.64,0,20.91,1.65,32.55,9.66h24.97c4.01,0,17.26,1.83,17.26,21.82h-52.57"/>
          <path class="cls-3" d="m148.89,106.87s21.53-16.95,34.93-27.27c14.1-10.85,25.05-6.25,33.88,2.79l-67.22,64.86H63.35"/>
          <path class="cls-3" d="m30.86,117.67c16.51-21.23,29.61-29.33,45.92-29.33,13.64,0,20.91,1.65,32.55,9.66h24.97c4.01,0,17.26,1.83,17.26,21.82h-52.57"/>
          <polyline class="cls-2" points="3.06 125.87 22.77 105.67 78.72 163.01 59.02 183.21"/>
        </g>
        <path class="cls-4" d="m21.9,132.27c-2.01,2.06-2.01,5.4,0,7.46,2.01,2.06,5.27,2.06,7.28,0s2.01-5.4,0-7.46c-2.01-2.06-5.27-2.06-7.28,0Z"/>
      </g>
    </g>
  </g>
</svg>