<?xml version="1.0" encoding="UTF-8"?>
<svg id="Layer_2" data-name="Layer 2" xmlns="http://www.w3.org/2000/svg" viewBox="0 0 209.41 209.41">
  <defs>
    <style>
      .cls-1 {
        fill: #fff;
      }

      .cls-1, .cls-2 {
        stroke: #0112e8;
        stroke-linecap: round;
        stroke-linejoin: round;
        stroke-width: 6.13px;
      }

      .cls-2 {
        fill: none;
      }
    </style>
  </defs>
  <g id="icons">
    <g>
      <g>
        <circle class="cls-2" cx="104.7" cy="104.7" r="82.49"/>
        <g>
          <line class="cls-2" x1="110.13" y1="102.13" x2="122.58" y2="131.84"/>
          <line class="cls-2" x1="86.83" y1="131.84" x2="99.83" y2="102.19"/>
          <path class="cls-2" d="m86.83,131.84l-26.01,2.44c-7.97,1.05-13.92,5.78-16.96,12.51l-2.62,6.92"/>
          <path class="cls-2" d="m122.58,131.84l26.01,2.44c8.07.7,13.92,5.78,16.96,12.51l2.62,6.91"/>
        </g>
        <g>
          <path class="cls-2" d="m90.64,94.95c0,4.58-3.66,8.29-8.18,8.29-4.15,0-7.58-3.13-8.11-7.19-.39-2.92-.59-5.95-.59-9.06h-.02c0-17.88,13.86-32.38,30.97-32.38s30.97,14.5,30.97,32.38h0c0,3.11-.2,6.14-.59,9.06-.53,4.06-3.96,7.19-8.11,7.19-4.52,0-8.18-3.71-8.18-8.29"/>
          <path class="cls-1" d="m78.87,88.99c-2.55,1.19-4.31,3.76-4.31,6.76,0,4.14,3.36,7.5,7.5,7.5.42,0,.82-.06,1.21-.12,3.38,13.75,11.7,23.48,21.44,23.48s18.05-9.73,21.44-23.48c.39.06.79.12,1.2.12,4.14,0,7.5-3.36,7.5-7.5s-3.13-7.22-7.06-7.45"/>
          <path class="cls-2" d="m127.77,88.31c-2.79.74-5.76,1.15-8.85,1.15-12.45,0-23.07-6.54-27.24-15.74"/>
        </g>
      </g>
      <g>
        <g>
          <line class="cls-2" x1="104.7" y1="3.06" x2="104.7" y2="41.34"/>
          <line class="cls-2" x1="104.7" y1="168.07" x2="104.7" y2="206.35"/>
        </g>
        <g>
          <line class="cls-2" x1="3.06" y1="104.7" x2="41.34" y2="104.7"/>
          <line class="cls-2" x1="168.07" y1="104.7" x2="206.35" y2="104.7"/>
        </g>
      </g>
    </g>
  </g>
</svg>