<?xml version="1.0" encoding="UTF-8"?>
<svg id="Layer_2" data-name="Layer 2" xmlns="http://www.w3.org/2000/svg" viewBox="0 0 227.09 169.56">
  <defs>
    <style>
      .cls-1, .cls-2 {
        stroke: #0112e8;
        stroke-linecap: round;
        stroke-linejoin: round;
        stroke-width: 6.13px;
      }

      .cls-1, .cls-3 {
        fill: #fff;
      }

      .cls-2 {
        fill: none;
      }

      .cls-3 {
        stroke-width: 0px;
      }
    </style>
  </defs>
  <g id="icons">
    <g>
      <path class="cls-2" d="m43.2,103.95h42.79c10.01,0,17.18,5.31,17.18,11.85s-7.17,11.85-17.18,11.85h-36.15c-13.82,0-23.13,7.32-23.13,16.36s9.31,16.36,23.13,16.36h114.46"/>
      <g>
        <g>
          <path class="cls-3" d="m164.3,164.97c-5.32,0-10.09-2.75-12.75-7.36l-37.64-65.2c-.11-.19-.2-.38-.28-.57-6.51-11.54-8.86-24.59-6.79-37.78,3.99-25.41,25.46-45.84,51.04-48.59,2.13-.23,4.29-.35,6.42-.35,32.09,0,58.19,26.11,58.19,58.19,0,9.96-2.6,19.8-7.51,28.52-.08.2-.17.39-.28.58l-37.64,65.2c-2.66,4.61-7.43,7.36-12.75,7.36Z"/>
          <path class="cls-3" d="m164.3,9.71c29.6,0,53.6,24,53.6,53.6,0,9.77-2.65,18.89-7.22,26.78l.04.02-37.64,65.2c-1.95,3.38-5.36,5.07-8.77,5.07s-6.82-1.69-8.77-5.07l-37.64-65.2.04-.02c-5.87-10.15-8.58-22.35-6.54-35.33,3.7-23.52,23.32-42.19,46.99-44.73,2-.21,3.98-.32,5.93-.32m0-9.19c-2.29,0-4.62.12-6.91.37-13.45,1.44-26.36,7.47-36.34,16.98-9.99,9.51-16.65,22.1-18.75,35.46-2.22,14.15.27,28.15,7.21,40.55.12.28.26.55.42.82l37.64,65.2c3.49,6.05,9.75,9.66,16.73,9.66s13.24-3.61,16.73-9.66l37.64-65.2c.16-.28.3-.56.43-.84,5.22-9.35,7.98-19.89,7.98-30.55,0-34.62-28.17-62.79-62.79-62.79h0Z"/>
        </g>
        <path class="cls-1" d="m217.9,63.31c0-31.56-27.27-56.74-59.53-53.28-23.67,2.54-43.3,21.21-46.99,44.73-2.04,12.97.67,25.18,6.54,35.33l-.04.02,37.64,65.2c3.9,6.75,13.65,6.75,17.55,0l37.64-65.2-.04-.02c4.56-7.89,7.22-17.01,7.22-26.78Z"/>
        <path class="cls-2" d="m190.45,63.31c0,14.44-11.71,26.15-26.15,26.15s-26.15-11.71-26.15-26.15,11.71-26.15,26.15-26.15,26.15,11.71,26.15,26.15Z"/>
      </g>
      <g>
        <g>
          <path class="cls-3" d="m43.1,108.7c-4.01,0-7.61-2.07-9.61-5.55L9.89,62.27c-.09-.15-.17-.31-.24-.47-4.25-7.58-5.78-16.15-4.42-24.8C7.86,20.25,22.01,6.79,38.88,4.98c1.4-.15,2.83-.23,4.23-.23,21.15,0,38.35,17.2,38.35,38.35,0,6.52-1.69,12.97-4.89,18.7-.07.16-.15.32-.24.48l-23.6,40.88c-2.01,3.47-5.6,5.55-9.61,5.55Z"/>
          <path class="cls-3" d="m43.1,9.5c18.56,0,33.6,15.04,33.6,33.6,0,6.12-1.66,11.85-4.52,16.79h.02s-23.6,40.89-23.6,40.89c-1.22,2.12-3.36,3.18-5.5,3.18s-4.28-1.06-5.5-3.18L14,59.9h.02c-3.68-6.37-5.38-14.03-4.1-22.16,2.32-14.75,14.62-26.45,29.46-28.04,1.25-.13,2.49-.2,3.72-.2m0-9.5c-1.57,0-3.16.09-4.73.25-9.24.99-18.11,5.13-24.96,11.65C6.55,18.43,1.98,27.08.54,36.27c-1.52,9.66.17,19.22,4.88,27.69.11.23.23.46.36.69l23.6,40.88c2.86,4.96,7.99,7.92,13.72,7.92s10.86-2.96,13.72-7.92l23.6-40.88c.13-.23.26-.47.37-.71,3.54-6.39,5.4-13.57,5.4-20.84C86.2,19.33,66.87,0,43.1,0h0Z"/>
        </g>
        <path class="cls-1" d="m76.71,43.1c0-19.78-17.1-35.57-37.32-33.4-14.84,1.59-27.15,13.3-29.46,28.04-1.28,8.13.42,15.79,4.1,22.15h-.02s23.6,40.89,23.6,40.89c2.44,4.23,8.56,4.23,11,0l23.6-40.88h-.02c2.86-4.96,4.52-10.68,4.52-16.8Z"/>
        <path class="cls-2" d="m59.5,43.1c0,9.05-7.34,16.39-16.39,16.39s-16.39-7.34-16.39-16.39,7.34-16.39,16.39-16.39,16.39,7.34,16.39,16.39Z"/>
      </g>
    </g>
  </g>
</svg>