<?xml version="1.0" encoding="UTF-8"?>
<svg id="Layer_2" data-name="Layer 2" xmlns="http://www.w3.org/2000/svg" viewBox="0 0 254.31 202.36">
  <defs>
    <style>
      .cls-1 {
        stroke: #fff;
        stroke-width: 19.66px;
      }

      .cls-1, .cls-2, .cls-3 {
        stroke-linecap: round;
        stroke-linejoin: round;
      }

      .cls-1, .cls-3 {
        fill: #fff;
      }

      .cls-2 {
        fill: none;
      }

      .cls-2, .cls-3 {
        stroke: #0112e8;
        stroke-width: 6.55px;
      }
    </style>
  </defs>
  <g id="icons">
    <g>
      <g>
        <circle class="cls-3" cx="189.65" cy="74.34" r="61.39"/>
        <polyline class="cls-2" points="164.91 49.61 189.65 74.34 223.26 40.73"/>
        <path class="cls-3" d="m182.05,74.34c0,4.2,3.4,7.6,7.6,7.6s7.6-3.4,7.6-7.6-3.4-7.6-7.6-7.6-7.6,3.4-7.6,7.6Z"/>
        <line class="cls-3" x1="237.32" y1="74.34" x2="229.44" y2="74.34"/>
        <line class="cls-3" x1="189.65" y1="34.55" x2="189.65" y2="26.67"/>
        <line class="cls-3" x1="141.98" y1="74.35" x2="149.85" y2="74.35"/>
        <line class="cls-3" x1="189.65" y1="114.13" x2="189.65" y2="122.01"/>
      </g>
      <g>
        <circle class="cls-1" cx="106.23" cy="25.16" r="15.34" transform="translate(-.6 2.66) rotate(-1.43)"/>
        <path class="cls-1" d="m94.63,116.34l14.1-37.15,12.71,16.73c1.68,2.2,4.27,3.46,6.98,3.46.61,0,1.23-.06,1.84-.19l28.35-6.1c4.29-.92,7.64-4.72,7.41-9.1-.3-5.55-5.45-9.23-10.6-8.14l-23.4,5.04-17.58-23.13c-3.75-4.94-9.6-7.84-15.8-7.84h-39.67c-3.16,0-6.07,1.7-7.63,4.45l-17.7,31.28c-2.38,4.21-.9,9.56,3.31,11.94,1.36.77,2.84,1.14,4.31,1.14,3.05,0,6.02-1.6,7.63-4.45l15.18-26.83h17.85l-27.82,73.49H18.59c-4.84,0-8.76,3.93-8.76,8.76s3.93,8.76,8.76,8.76h44.85c3.64,0,6.91-2.25,8.2-5.66l6.96-27.02,29.25,25.11,12.45,35.76c1.26,3.62,4.65,5.88,8.28,5.88.95,0,1.93-.15,2.88-.48,4.57-1.59,6.99-6.59,5.4-11.16l-15.25-43.68c-.51-1.46-1.4-2.76-2.57-3.77l-24.41-17.1Z"/>
      </g>
      <g>
        <circle class="cls-2" cx="106.23" cy="25.16" r="15.34" transform="translate(-.6 2.66) rotate(-1.43)"/>
        <path class="cls-2" d="m95.79,113.29l12.94-34.1,12.71,16.73c1.68,2.2,4.27,3.46,6.98,3.46.61,0,1.23-.06,1.84-.19l28.35-6.1c4.29-.92,7.64-4.72,7.41-9.1-.3-5.55-5.45-9.23-10.6-8.14l-23.4,5.04-17.58-23.13c-3.75-4.94-9.6-7.84-15.8-7.84h-39.67c-3.16,0-6.07,1.7-7.63,4.45l-17.7,31.28c-2.38,4.21-.9,9.56,3.31,11.94,1.36.77,2.84,1.14,4.31,1.14,3.05,0,6.02-1.6,7.63-4.45l15.18-26.83h17.85l-27.82,73.49H18.59c-4.84,0-8.76,3.93-8.76,8.76s3.93,8.76,8.76,8.76h44.85c3.64,0,6.91-2.25,8.2-5.66l9.55-24.79,26.65,22.89,12.45,35.76c1.26,3.62,4.65,5.88,8.28,5.88.95,0,1.93-.15,2.88-.48,4.57-1.59,6.99-6.59,5.4-11.16l-15.25-43.68c-.51-1.46-1.4-2.76-2.57-3.77l-23.25-20.16Z"/>
      </g>
    </g>
  </g>
</svg>