<?xml version="1.0" encoding="utf-8"?>
<!-- Generator: Adobe Illustrator 28.2.0, SVG Export Plug-In . SVG Version: 6.00 Build 0)  -->
<svg version="1.1" id="Layer_2_00000018195976712776445760000004202293407309775519_"
	 xmlns="http://www.w3.org/2000/svg" xmlns:xlink="http://www.w3.org/1999/xlink" x="0px" y="0px" viewBox="0 0 2774.8 549.6"
	 style="enable-background:new 0 0 2774.8 549.6;" xml:space="preserve">
<style type="text/css">
	.st0{fill:#FFFFFF;}
</style>
<g id="Layer_1-2">
	<g>
		<g>
			<path class="st0" d="M760.7,425.4V130.9H860c25.5,0,47.3,4.2,65.2,12.5c18,8.4,32.5,19.6,43.7,33.7
				c11.2,14.1,19.3,29.9,24.4,47.3s7.7,35.4,7.7,53.7c0,16.8-2.4,33.9-7.3,51.1c-4.9,17.2-12.7,33.1-23.7,47.6
				c-10.9,14.5-25.6,26.2-43.9,35.1c-18.3,8.9-40.8,13.5-67.8,13.5H760.7L760.7,425.4z M815.2,373.6H864c15,0,27.6-2.8,37.9-8.5
				c10.2-5.7,18.5-13.2,24.7-22.5c6.2-9.3,10.8-19.6,13.7-30.9c2.9-11.3,4.3-22.5,4.3-33.5c0-11.8-1.5-23.4-4.4-34.7
				c-3-11.4-7.5-21.7-13.7-30.9s-14-16.6-23.6-22.1s-21-8.2-34.3-8.2h-53.4V373.6L815.2,373.6z"/>
			<path class="st0" d="M1060.1,425.4V130.9h199v51.7h-144.5v64.8h85.6v51.7h-85.6v74h153.3v52.2L1060.1,425.4L1060.1,425.4z"/>
			<path class="st0" d="M1401.9,425.4l-104.5-294.5h58.9l65.8,195c1,3,2,6,3.1,9.1c1.1,3.2,1.9,6.1,2.6,8.7c0.4-2.4,1.1-5.1,2-8.3
				c0.9-3.1,1.9-6.3,3.1-9.6l65.4-195h58.3l-104.2,294.6H1401.9L1401.9,425.4z"/>
			<path class="st0" d="M1596.7,425.4V130.9h50.9l116.1,173.3c1.5,2.5,3.5,5.9,6,10.2c2.4,4.3,4.5,8.2,6.2,11.7
				c-0.4-3.1-0.7-6.8-0.9-11.2s-0.3-8-0.3-10.6V131h54.3v294.4h-48.6l-118.5-174.6c-1.5-2.4-3.5-5.8-6-10.1
				c-2.4-4.4-4.5-8.3-6.2-11.8c0.4,3.5,0.7,7.3,0.8,11.4s0.2,7.6,0.2,10.5v174.6H1596.7L1596.7,425.4z"/>
			<path class="st0" d="M1900,425.4V130.9h199v51.7h-144.5v64.8h85.6v51.7h-85.6v74h153.3v52.2L1900,425.4L1900,425.4z"/>
			<path class="st0" d="M2148.8,425.4l94.7-151.9l-88.8-142.6h63.3l57,92.3l56.6-92.3h63.3l-88.6,141.8l94.9,152.7h-63.5
				l-63.1-102.2l-62.5,102.2H2148.8L2148.8,425.4z"/>
			<path class="st0" d="M2447.1,425.4V130.9h54.5v294.5H2447.1L2447.1,425.4z"/>
			<path class="st0" d="M2669.4,430.4c-18.4,0-35.1-3.2-50.1-9.7s-27.9-15.6-38.6-27.5s-18.8-25.8-24.1-42l49.4-18.3
				c6.3,13.5,15.1,24.5,26.4,33.1c11.3,8.6,24,12.9,38.2,12.9c15,0,27-3.1,35.9-9.5c8.9-6.3,13.4-15.5,13.4-27.6
				c0-8.3-2.6-15.2-7.9-20.7s-12.3-10.3-21.2-14.3s-19-7.9-30.2-11.7c-10.8-3.6-21.7-7.7-32.6-12.2c-10.9-4.5-21-10-30.1-16.5
				s-16.4-14.8-22-24.7s-8.3-22.2-8.3-36.6s3.9-27.7,11.6-39.8c7.7-12.1,18.9-21.7,33.6-28.9c14.6-7.2,32.4-10.8,53.3-10.8
				c17.1,0,32.3,2.9,45.5,8.7s24.2,13.7,32.9,23.7s14.7,21.2,18.1,33.9l-48.8,16.2c-3.9-8.8-9.9-16.2-18-22.2s-19-8.9-32.7-8.9
				c-12.9,0-22.9,2.5-30.1,7.6c-7.1,5.1-10.7,12.2-10.7,21.5c0,6.3,2.4,11.7,7.3,16.1c4.8,4.4,11.4,8.4,19.6,11.9
				s17.5,7.1,27.9,10.7c11.6,3.9,23.2,8.4,34.8,13.4s22.1,11,31.6,18.2c9.5,7.1,17.1,16,22.8,26.6c5.8,10.6,8.6,23.5,8.6,38.8
				c0,18.8-4.7,34.8-14,48s-22,23.3-37.9,30.2C2707.1,426.9,2689.2,430.4,2669.4,430.4L2669.4,430.4z"/>
		</g>
		<path class="st0" d="M23.9,0l148.6,148.6H373c15.4,0,27.9,12.5,27.9,27.9V377l148.6,148.7V27.9C549.5,12.5,537,0,521.6,0L23.9,0
			L23.9,0z M377,401H176.5c-15.4,0-27.9-12.5-27.9-27.9V172.6L0,23.9v497.8c0,15.4,12.5,27.9,27.9,27.9h497.7L377,401L377,401z"/>
	</g>
</g>
</svg>
