<?xml version="1.0" encoding="UTF-8"?>
<svg id="Layer_2" data-name="Layer 2" xmlns="http://www.w3.org/2000/svg" viewBox="0 0 2774.81 549.59">
  <defs>
    <style>
      .cls-1 {
        fill: #0112e8;
      }

      .cls-2 {
        fill: #231f20;
      }
    </style>
  </defs>
  <g id="Layer_1-2" data-name="Layer 1">
    <g>
      <g>
        <path class="cls-2" d="m760.75,425.37V130.89h99.28c25.52,0,47.26,4.18,65.21,12.52,17.95,8.35,32.5,19.56,43.65,33.66,11.15,14.09,19.28,29.87,24.4,47.33,5.12,17.46,7.68,35.37,7.68,53.74,0,16.83-2.42,33.87-7.26,51.12-4.84,17.25-12.73,33.13-23.66,47.64-10.94,14.51-25.56,26.22-43.86,35.13-18.3,8.91-40.91,13.36-67.84,13.36h-97.6Zm54.48-51.74h48.8c15.01,0,27.62-2.84,37.86-8.52,10.23-5.68,18.47-13.18,24.72-22.51,6.24-9.32,10.8-19.63,13.67-30.92,2.87-11.29,4.31-22.47,4.31-33.55,0-11.78-1.47-23.35-4.42-34.71-2.95-11.36-7.5-21.67-13.67-30.92-6.17-9.25-14.02-16.62-23.56-22.09-9.54-5.47-20.97-8.2-34.29-8.2h-53.43v191.42Z"/>
        <path class="cls-2" d="m1060.08,425.37V130.89h198.99v51.75h-144.51v64.79h85.61v51.74h-85.61v74.04h153.34v52.17h-207.82Z"/>
        <path class="cls-2" d="m1401.89,425.37l-104.54-294.49h58.9l65.84,194.99c.98,2.95,2,6,3.05,9.15,1.05,3.16,1.93,6.07,2.63,8.73.42-2.38,1.09-5.15,2-8.31.91-3.15,1.93-6.34,3.05-9.57l65.42-194.99h58.27l-104.12,294.49h-50.48Z"/>
        <path class="cls-2" d="m1596.67,425.37V130.89h50.91l116.11,173.33c1.54,2.52,3.54,5.93,5.99,10.2,2.45,4.28,4.52,8.17,6.21,11.67-.42-3.08-.74-6.83-.95-11.25-.21-4.42-.32-7.96-.32-10.62v-173.33h54.27v294.49h-48.59l-118.43-174.59c-1.54-2.38-3.54-5.75-6-10.1-2.45-4.35-4.52-8.27-6.21-11.78.42,3.51.7,7.29.84,11.36.14,4.07.21,7.57.21,10.52v174.59h-54.06Z"/>
        <path class="cls-2" d="m1899.99,425.37V130.89h198.99v51.75h-144.51v64.79h85.61v51.74h-85.61v74.04h153.34v52.17h-207.82Z"/>
        <path class="cls-2" d="m2148.82,425.37l94.66-151.87-88.77-142.62h63.31l57,92.34,56.58-92.34h63.31l-88.56,141.77,94.87,152.71h-63.52l-63.1-102.23-62.47,102.23h-63.31Z"/>
        <path class="cls-2" d="m2447.09,425.37V130.89h54.48v294.49h-54.48Z"/>
        <path class="cls-2" d="m2669.42,430.42c-18.37,0-35.06-3.23-50.06-9.68-15.01-6.45-27.87-15.6-38.6-27.45-10.73-11.85-18.76-25.84-24.09-41.96l49.43-18.3c6.31,13.46,15.11,24.51,26.4,33.13,11.29,8.62,24.01,12.94,38.18,12.94,15,0,26.96-3.15,35.86-9.46,8.9-6.31,13.36-15.49,13.36-27.56,0-8.27-2.63-15.18-7.89-20.72-5.26-5.54-12.34-10.31-21.24-14.3-8.91-4-18.97-7.89-30.18-11.67-10.8-3.65-21.67-7.71-32.6-12.2-10.94-4.49-20.97-9.99-30.08-16.51-9.12-6.52-16.44-14.76-21.98-24.72-5.54-9.96-8.31-22.16-8.31-36.6s3.85-27.69,11.57-39.76c7.71-12.06,18.89-21.7,33.55-28.92,14.65-7.22,32.43-10.83,53.32-10.83,17.11,0,32.29,2.91,45.54,8.73,13.25,5.82,24.22,13.71,32.92,23.66,8.69,9.96,14.72,21.25,18.09,33.87l-48.8,16.2c-3.93-8.84-9.92-16.23-17.99-22.19-8.07-5.96-18.97-8.94-32.71-8.94-12.9,0-22.93,2.52-30.08,7.57-7.15,5.05-10.73,12.2-10.73,21.46,0,6.31,2.42,11.68,7.26,16.09,4.84,4.42,11.36,8.38,19.56,11.89,8.2,3.51,17.49,7.08,27.87,10.73,11.64,3.93,23.24,8.38,34.81,13.36,11.57,4.98,22.09,11.04,31.55,18.19,9.47,7.15,17.07,16.02,22.82,26.61,5.75,10.59,8.62,23.53,8.62,38.81,0,18.79-4.66,34.78-13.99,47.96-9.33,13.18-21.91,23.24-37.76,30.18-15.85,6.94-33.73,10.41-53.64,10.41Z"/>
      </g>
      <path class="cls-1" d="m23.87,0l148.64,148.64h200.47c15.41,0,27.91,12.49,27.91,27.91v200.47l148.64,148.64V27.91c0-15.41-12.49-27.91-27.91-27.91H23.87Zm353.14,400.95h-200.47c-15.41,0-27.91-12.49-27.91-27.91v-200.47L0,23.94v497.75c0,15.41,12.49,27.91,27.91,27.91h497.75l-148.64-148.64Z"/>
    </g>
  </g>
</svg>